<svg xmlns="http://www.w3.org/2000/svg" viewBox="0 0 512 512" width="32" height="32">
  <!-- Font Awesome fa-solid fa-rocket, rotated -90° (pointing right) -->
  <g transform="rotate(-90 256 256)">
    <path fill="white" d="M156.6 384.9L125.7 354c-8.5-8.5-11.5-20.8-7.7-32.2c3-8.9 7-17.5 11.9-25.6c10.5-17.4 24-32.9 39.8-45.7l0-79.5c0-26.5 21.5-48 48-48h80c26.5 0 48 21.5 48 48v79.5c15.8 12.8 29.3 28.3 39.8 45.7c4.9 8.1 8.9 16.7 11.9 25.6c3.8 11.4 .8 23.7-7.7 32.2l-30.9 30.9c-8.5 8.5-20.8 11.5-32.2 7.7c-8.9-3-17.5-7-25.6-11.9c-17.4-10.5-32.9-24-45.7-39.8H256c-12.8 15.8-28.3 29.3-45.7 39.8c-8.1 4.9-16.7 8.9-25.6 11.9c-11.4 3.8-23.7 .8-32.2-7.7zM256 32c0 0 48 64 48 128v48c0 17.7-14.3 32-32 32h-32c-17.7 0-32-14.3-32-32v-48c0-64 48-128 48-128zm-96 336a32 32 0 1 0 0-64 32 32 0 1 0 0 64zm192 0a32 32 0 1 0 0-64 32 32 0 1 0 0 64z"/>
  </g>
</svg>
